<svg xmlns="http://www.w3.org/2000/svg" viewBox="0 0 120 120"><rect width="120" height="120" rx="0" ry="0" style="fill:#202020;stroke:none;stroke-width:6.97448;stroke-linecap:round;stroke-linejoin:round;paint-order:fill markers stroke;stop-color:#000;fill-opacity:1"/><path d="M0 20h39.985c9.876 0 19.992 9.952 19.992 20v40c-.197 9.718 10.21 20.002 19.992 20H120l-.046 20H0Z" style="fill:#eee;fill-opacity:1;stroke:none;stroke-width:.999808px;stroke-linecap:butt;stroke-linejoin:miter;stroke-opacity:1"/><path d="M38.379 44.516h47.316v15.102H38.379z" style="fill:#222;fill-opacity:1;stroke:none;stroke-width:0;stroke-linecap:round;stroke-linejoin:round;stroke-miterlimit:4;stroke-dasharray:none;paint-order:fill markers stroke;stop-color:#000" transform="skewX(-39.529) scale(1 .7713)"/><path d="M32.27 47.23h13.801v41.268H32.27z" style="fill:#222;fill-opacity:1;stroke:none;stroke-width:0;stroke-linecap:round;stroke-linejoin:round;stroke-miterlimit:4;stroke-dasharray:none;paint-order:fill markers stroke;stop-color:#000" transform="matrix(1 0 -.2369 .97153 0 0)"/><path d="M73.269 52.567h35.001V63.36H73.269z" style="fill:#eee;fill-opacity:1;stroke:none;stroke-width:0;stroke-linecap:round;stroke-linejoin:round;stroke-miterlimit:4;stroke-dasharray:none;paint-order:fill markers stroke;stop-color:#000" transform="matrix(1 0 -.26844 1 15.56 0)"/><path d="M40.463-96.166h35.001v10.793H40.463z" style="fill:#eee;fill-opacity:1;stroke:none;stroke-width:0;stroke-linecap:round;stroke-linejoin:round;stroke-miterlimit:4;stroke-dasharray:none;paint-order:fill markers stroke;stop-color:#000" transform="matrix(-.26844 1 -1 0 15.56 0)"/></svg>