<?xml version="1.0" encoding="utf-8"?>
<svg width="24px" height="24px" viewBox="0 0 24 24" id="Layer_1" data-name="Layer 1" xmlns="http://www.w3.org/2000/svg">
  <defs><style>.cls-1{fill:none;stroke:var(--stroke, #020202);stroke-miterlimit:10;stroke-width:1.92px;}</style></defs>
  <polyline class="cls-1" points="0.5 11.04 12 11.04 23.5 11.04"/>
  <path class="cls-1" d="M19.67,11H4.33L5,4.68A2.54,2.54,0,0,1,7.57,2.42h0a2.47,2.47,0,0,1,1.13.27h0a7.43,7.43,0,0,0,6.6,0h0a2.47,2.47,0,0,1,1.13-.27h0A2.54,2.54,0,0,1,19,4.68Z"/>
  <circle class="cls-1" cx="6.73" cy="18.23" r="3.35"/>
  <circle class="cls-1" cx="17.27" cy="18.23" r="3.35"/>
  <path class="cls-1" d="M10.08,18.71a1.92,1.92,0,1,1,3.84,0"/>
  <line class="cls-1" x1="1.46" y1="15.83" x2="4.33" y2="15.83"/>
  <line class="cls-1" x1="19.67" y1="15.83" x2="22.54" y2="15.83"/>
</svg>