<?xml version="1.0" encoding="utf-8"?><!-- Uploaded to: SVG Repo, www.svgrepo.com, Generator: SVG Repo Mixer Tools -->
<svg width="800px" height="800px" viewBox="0 0 20 20" xmlns="http://www.w3.org/2000/svg" fill="none">
  <path fill="#000000" fill-rule="evenodd" d="M10 3a7 7 0 100 14 7 7 0 000-14zm-9 7a9 9 0 1118 0 9 9 0 01-18 0zm12.844-3.707a1 1 0 010 1.414l-2.361 2.362 2.361 2.36a1 1 0 01-1.414 1.415l-2.361-2.361-2.362 2.361a1 1 0 11-1.414-1.414l2.361-2.361-2.361-2.362a1 1 0 011.414-1.414l2.362 2.361 2.36-2.361a1 1 0 011.415 0z"/>
</svg>